<?xml version="1.0" encoding="UTF-8" standalone="no"?>
<!-- Created with Inkscape (http://www.inkscape.org/) -->

<svg
   xmlns:dc="http://purl.org/dc/elements/1.1/"
   xmlns:cc="http://creativecommons.org/ns#"
   xmlns:rdf="http://www.w3.org/1999/02/22-rdf-syntax-ns#"
   xmlns:svg="http://www.w3.org/2000/svg"
   xmlns="http://www.w3.org/2000/svg"
   xmlns:sodipodi="http://sodipodi.sourceforge.net/DTD/sodipodi-0.dtd"
   xmlns:inkscape="http://www.inkscape.org/namespaces/inkscape"
   width="1024"
   height="1024"
   viewBox="0 0 270.93333 270.93333"
   version="1.1"
   id="svg8"
   inkscape:version="0.92.4 5da689c313, 2019-01-14"
   sodipodi:docname="logo.svg"
   inkscape:export-filename="/home/thibault/Dropbox/CIR4/android/Projet-Android-M1/logo.png"
   inkscape:export-xdpi="431.33694"
   inkscape:export-ydpi="431.33694">
  <defs
     id="defs2">
    <inkscape:path-effect
       effect="spiro"
       id="path-effect4540"
       is_visible="true" />
  </defs>
  <sodipodi:namedview
     id="base"
     pagecolor="#ffffff"
     bordercolor="#666666"
     borderopacity="1.0"
     inkscape:pageopacity="0.0"
     inkscape:pageshadow="2"
     inkscape:zoom="0.35"
     inkscape:cx="-930.42999"
     inkscape:cy="18.315859"
     inkscape:document-units="mm"
     inkscape:current-layer="g16"
     showgrid="false"
     inkscape:window-width="1680"
     inkscape:window-height="1021"
     inkscape:window-x="1920"
     inkscape:window-y="0"
     inkscape:window-maximized="1"
     units="px" />
  <metadata
     id="metadata5">
    <rdf:RDF>
      <cc:Work
         rdf:about="">
        <dc:format>image/svg+xml</dc:format>
        <dc:type
           rdf:resource="http://purl.org/dc/dcmitype/StillImage" />
        <dc:title />
      </cc:Work>
    </rdf:RDF>
  </metadata>
  <g
     inkscape:label="Calque 1"
     inkscape:groupmode="layer"
     id="layer1"
     transform="translate(0,-26.06667)"
     style="display:inline" />
  <g
     inkscape:groupmode="layer"
     id="layer6"
     inkscape:label="dish"
     transform="translate(0,70.93333)">
    <g
       style="display:inline;fill:#0000ff;fill-opacity:1"
       transform="matrix(0.05437445,-0.02991133,0.02991133,0.05437445,119.73952,16.93016)"
       id="g10">
      <g
         transform="matrix(0.1,0,0,-0.1,0,377)"
         id="g8"
         style="fill:#0000ff;fill-opacity:1">
        <path
           inkscape:connector-curvature="0"
           d="M 4731.9,2363.2 C 4383.2,2296.1 4090.1,1959 4063.3,1594.9 l -11.5,-153.3 -249.1,-63.2 C 2231.7,981.8 980.7,-271.2 582.2,-1842.2 c -84.3,-339.1 -120.7,-592 -136,-959.8 l -11.5,-312.3 H 4914 9393.2 l -11.5,293.1 c -13.4,365.9 -55.6,661 -137.9,982.8 -404.3,1576.8 -1642,2812.6 -3218.7,3216.8 l -249.1,63.2 -11.5,153.3 c -15.3,199.3 -92,365.9 -237.6,519.2 -210.7,222.2 -488.5,308.4 -795,249.1 z m 413.8,-377.5 c 145.6,-72.8 252.9,-231.8 283.5,-415.7 l 9.6,-57.5 h -525 -523 l 7.7,57.5 c 38.3,224.2 172.4,387 371.7,452.1 82.4,26.9 291.2,7.7 375.5,-36.4 z M 5004,811.3 c 53.6,-28.7 95.8,-137.9 74.7,-195.4 -38.3,-101.5 -93.9,-120.7 -369.8,-134.1 -139.9,-7.7 -320,-26.8 -398.5,-42.2 -203.1,-40.2 -260.6,-38.3 -316.1,19.2 -59.4,57.5 -63.2,157.1 -9.6,226.1 42.1,53.7 130.3,78.6 431.1,118.8 218.4,30.6 536.4,34.4 588.2,7.6 z M 3258.6,303.6 c 49.8,-53.6 59.4,-159 17.2,-208.8 -13.4,-17.2 -113,-92 -220.3,-164.8 -682,-463.6 -1203.2,-1251.1 -1389,-2097.9 -42.2,-199.2 -86.2,-256.7 -195.4,-256.7 -97.7,0 -168.6,67.1 -168.6,159 0,36.4 24.9,164.8 55.6,283.5 214.6,846.8 708.9,1605.5 1375.6,2107.4 218.4,166.7 367.8,245.2 433,233.7 26.8,-5.6 68.9,-30.5 91.9,-55.4 z"
           id="path4-6"
           style="fill:#0000ff;fill-opacity:1" />
        <path
           inkscape:connector-curvature="0"
           d="m 287.1,-3328.8 c -145.6,-74.7 -218.4,-231.8 -174.3,-379.3 30.7,-103.5 459.8,-697.4 595.8,-825.7 136,-128.3 344.9,-237.5 528.8,-275.9 197.3,-42.2 7328.1,-42.2 7525.5,0 183.9,38.3 392.8,147.5 528.8,275.9 136,128.4 565.2,722.3 595.8,825.7 42.2,137.9 -24.9,295 -155.2,371.7 l -67.1,40.2 -4645.9,5.8 -4645.9,3.8 z"
           id="path6"
           style="fill:#0000ff;fill-opacity:1" />
      </g>
    </g>
    <g
       aria-label="20/12/2020"
       transform="matrix(1.3594236,0.37942788,-0.37942788,1.3594236,-5.9863731,-76.289944)"
       style="font-style:normal;font-weight:normal;font-size:5.53917265px;line-height:1.25;font-family:sans-serif;letter-spacing:0px;word-spacing:0px;fill:#0000ff;fill-opacity:1;stroke:none;stroke-width:0.13847931"
       id="text4642">
      <path
         d="m 88.793291,39.886023 h 1.906796 v 0.459795 h -2.564032 v -0.459795 q 0.311038,-0.321856 0.846563,-0.862791 0.538231,-0.54364 0.676169,-0.700511 0.262353,-0.294809 0.365131,-0.49766 0.105482,-0.205555 0.105482,-0.402996 0,-0.321856 -0.227192,-0.524707 -0.224488,-0.202851 -0.586915,-0.202851 -0.256944,0 -0.543639,0.08926 -0.283991,0.08925 -0.608552,0.270467 v -0.551753 q 0.32997,-0.132529 0.616666,-0.200146 0.286695,-0.06762 0.524707,-0.06762 0.627484,0 1.000729,0.313742 0.373245,0.313742 0.373245,0.838449 0,0.24883 -0.09466,0.473318 -0.09196,0.221783 -0.338085,0.524707 -0.06762,0.07843 -0.430043,0.454385 -0.362426,0.373245 -1.022367,1.046709 z"
         style="fill:#0000ff;fill-opacity:1;stroke-width:0.13847931"
         id="path835"
         inkscape:connector-curvature="0" />
      <path
         d="m 93.015288,36.667461 q -0.42193,0 -0.635599,0.41652 -0.210964,0.413815 -0.210964,1.246854 0,0.830335 0.210964,1.246855 0.213669,0.413815 0.635599,0.413815 0.424633,0 0.635598,-0.413815 0.213669,-0.41652 0.213669,-1.246855 0,-0.833039 -0.213669,-1.246854 -0.210965,-0.41652 -0.635598,-0.41652 z m 0,-0.432748 q 0.678873,0 1.03589,0.53823 0.359721,0.535526 0.359721,1.557892 0,1.019662 -0.359721,1.557893 -0.357017,0.535525 -1.03589,0.535525 -0.678874,0 -1.038595,-0.535525 -0.357017,-0.538231 -0.357017,-1.557893 0,-1.022366 0.357017,-1.557892 0.359721,-0.53823 1.038595,-0.53823 z"
         style="fill:#0000ff;fill-opacity:1;stroke-width:0.13847931"
         id="path837"
         inkscape:connector-curvature="0" />
      <path
         d="m 96.185166,36.307739 h 0.459794 l -1.40643,4.551967 h -0.459795 z"
         style="fill:#0000ff;fill-opacity:1;stroke-width:0.13847931"
         id="path839"
         inkscape:connector-curvature="0" />
      <path
         d="m 97.331948,39.886023 h 0.892542 v -3.080624 l -0.970978,0.194737 v -0.49766 l 0.965569,-0.194737 h 0.546344 v 3.578284 h 0.892542 v 0.459795 h -2.326019 z"
         style="fill:#0000ff;fill-opacity:1;stroke-width:0.13847931"
         id="path841"
         inkscape:connector-curvature="0" />
      <path
         d="m 101.23209,39.886023 h 1.90679 v 0.459795 h -2.56403 v -0.459795 q 0.31104,-0.321856 0.84656,-0.862791 0.53823,-0.54364 0.67617,-0.700511 0.26236,-0.294809 0.36513,-0.49766 0.10549,-0.205555 0.10549,-0.402996 0,-0.321856 -0.2272,-0.524707 -0.22448,-0.202851 -0.58691,-0.202851 -0.25694,0 -0.54364,0.08926 -0.28399,0.08925 -0.60855,0.270467 v -0.551753 q 0.32997,-0.132529 0.61666,-0.200146 0.2867,-0.06762 0.52471,-0.06762 0.62749,0 1.00073,0.313742 0.37325,0.313742 0.37325,0.838449 0,0.24883 -0.0947,0.473318 -0.092,0.221783 -0.33808,0.524707 -0.0676,0.07843 -0.43005,0.454385 -0.36242,0.373245 -1.02236,1.046709 z"
         style="fill:#0000ff;fill-opacity:1;stroke-width:0.13847931"
         id="path843"
         inkscape:connector-curvature="0" />
      <path
         d="m 105.09977,36.307739 h 0.4598 l -1.40643,4.551967 h -0.4598 z"
         style="fill:#0000ff;fill-opacity:1;stroke-width:0.13847931"
         id="path845"
         inkscape:connector-curvature="0" />
      <path
         d="m 106.6225,39.886023 h 1.9068 v 0.459795 h -2.56403 v -0.459795 q 0.31104,-0.321856 0.84656,-0.862791 0.53823,-0.54364 0.67617,-0.700511 0.26235,-0.294809 0.36513,-0.49766 0.10548,-0.205555 0.10548,-0.402996 0,-0.321856 -0.22719,-0.524707 -0.22449,-0.202851 -0.58691,-0.202851 -0.25695,0 -0.54364,0.08926 -0.28399,0.08925 -0.60856,0.270467 v -0.551753 q 0.32997,-0.132529 0.61667,-0.200146 0.2867,-0.06762 0.52471,-0.06762 0.62748,0 1.00073,0.313742 0.37324,0.313742 0.37324,0.838449 0,0.24883 -0.0947,0.473318 -0.092,0.221783 -0.33809,0.524707 -0.0676,0.07843 -0.43004,0.454385 -0.36243,0.373245 -1.02237,1.046709 z"
         style="fill:#0000ff;fill-opacity:1;stroke-width:0.13847931"
         id="path847"
         inkscape:connector-curvature="0" />
      <path
         d="m 110.8445,36.667461 q -0.42193,0 -0.6356,0.41652 -0.21096,0.413815 -0.21096,1.246854 0,0.830335 0.21096,1.246855 0.21367,0.413815 0.6356,0.413815 0.42463,0 0.6356,-0.413815 0.21367,-0.41652 0.21367,-1.246855 0,-0.833039 -0.21367,-1.246854 -0.21097,-0.41652 -0.6356,-0.41652 z m 0,-0.432748 q 0.67887,0 1.03589,0.53823 0.35972,0.535526 0.35972,1.557892 0,1.019662 -0.35972,1.557893 -0.35702,0.535525 -1.03589,0.535525 -0.67887,0 -1.03859,-0.535525 -0.35702,-0.538231 -0.35702,-1.557893 0,-1.022366 0.35702,-1.557892 0.35972,-0.53823 1.03859,-0.53823 z"
         style="fill:#0000ff;fill-opacity:1;stroke-width:0.13847931"
         id="path849"
         inkscape:connector-curvature="0" />
      <path
         d="m 113.67088,39.886023 h 1.9068 v 0.459795 h -2.56403 v -0.459795 q 0.31104,-0.321856 0.84656,-0.862791 0.53823,-0.54364 0.67617,-0.700511 0.26235,-0.294809 0.36513,-0.49766 0.10548,-0.205555 0.10548,-0.402996 0,-0.321856 -0.22719,-0.524707 -0.22449,-0.202851 -0.58691,-0.202851 -0.25695,0 -0.54364,0.08926 -0.28399,0.08925 -0.60856,0.270467 v -0.551753 q 0.32997,-0.132529 0.61667,-0.200146 0.2867,-0.06762 0.52471,-0.06762 0.62748,0 1.00073,0.313742 0.37324,0.313742 0.37324,0.838449 0,0.24883 -0.0947,0.473318 -0.092,0.221783 -0.33809,0.524707 -0.0676,0.07843 -0.43004,0.454385 -0.36243,0.373245 -1.02237,1.046709 z"
         style="fill:#0000ff;fill-opacity:1;stroke-width:0.13847931"
         id="path851"
         inkscape:connector-curvature="0" />
      <path
         d="m 117.89288,36.667461 q -0.42193,0 -0.6356,0.41652 -0.21096,0.413815 -0.21096,1.246854 0,0.830335 0.21096,1.246855 0.21367,0.413815 0.6356,0.413815 0.42463,0 0.6356,-0.413815 0.21367,-0.41652 0.21367,-1.246855 0,-0.833039 -0.21367,-1.246854 -0.21097,-0.41652 -0.6356,-0.41652 z m 0,-0.432748 q 0.67887,0 1.03589,0.53823 0.35972,0.535526 0.35972,1.557892 0,1.019662 -0.35972,1.557893 -0.35702,0.535525 -1.03589,0.535525 -0.67887,0 -1.03859,-0.535525 -0.35702,-0.538231 -0.35702,-1.557893 0,-1.022366 0.35702,-1.557892 0.35972,-0.53823 1.03859,-0.53823 z"
         style="fill:#0000ff;fill-opacity:1;stroke-width:0.13847931"
         id="path853"
         inkscape:connector-curvature="0" />
    </g>
  </g>
  <g
     inkscape:groupmode="layer"
     id="layer3"
     inkscape:label="Bouteille"
     style="display:inline"
     transform="translate(0,70.93333)">
    <g
       id="g4583"
       style="fill:#0000ff;fill-opacity:1">
      <g
         id="g16"
         transform="matrix(0.01860309,0,0,-0.01860309,48.313237,102.37485)"
         style="display:inline;fill:#0000ff;fill-opacity:1;stroke:none">
        <g
           aria-label="14/10/2019"
           transform="matrix(8.9600695,9.6378759,9.5556557,-9.0371651,-991.53965,-2448.5354)"
           style="font-style:normal;font-weight:normal;font-size:40px;line-height:1.25;font-family:sans-serif;letter-spacing:0px;word-spacing:0px;fill:#0000ff;fill-opacity:1;stroke:none"
           id="flowRoot4542">
          <path
             d="m 290.83398,213.19922 h 6.44532 v -22.2461 l -7.01172,1.40625 v -3.59375 l 6.97265,-1.40625 h 3.94532 v 25.83985 h 6.44531 v 3.32031 h -16.79688 z"
             id="path856"
             inkscape:connector-curvature="0" />
          <path
             d="m 326.43945,190.79687 -9.96093,15.56641 h 9.96093 z m -1.03515,-3.4375 h 4.96093 v 19.00391 h 4.16016 v 3.28125 h -4.16016 v 6.875 h -3.92578 v -6.875 h -13.16406 v -3.80859 z"
             id="path858"
             inkscape:connector-curvature="0" />
          <path
             d="m 346.92773,187.35937 h 3.32032 l -10.15625,32.8711 h -3.32032 z"
             id="path860"
             inkscape:connector-curvature="0" />
          <path
             d="m 355.20898,213.19922 h 6.44532 v -22.2461 l -7.01172,1.40625 v -3.59375 l 6.97265,-1.40625 h 3.94532 v 25.83985 h 6.44531 v 3.32031 h -16.79688 z"
             id="path862"
             inkscape:connector-curvature="0" />
          <path
             d="m 388.41211,189.95703 q -3.04688,0 -4.58984,3.00781 -1.52344,2.98828 -1.52344,9.00391 0,5.99609 1.52344,9.00391 1.54296,2.98828 4.58984,2.98828 3.06641,0 4.58984,-2.98828 1.54297,-3.00782 1.54297,-9.00391 0,-6.01563 -1.54297,-9.00391 -1.52343,-3.00781 -4.58984,-3.00781 z m 0,-3.125 q 4.90234,0 7.48047,3.88672 2.59765,3.86719 2.59765,11.25 0,7.36328 -2.59765,11.25 -2.57813,3.86719 -7.48047,3.86719 -4.90234,0 -7.5,-3.86719 -2.57813,-3.88672 -2.57813,-11.25 0,-7.38281 2.57813,-11.25 2.59766,-3.88672 7.5,-3.88672 z"
             id="path864"
             inkscape:connector-curvature="0" />
          <path
             d="m 411.30273,187.35937 h 3.32032 l -10.15625,32.8711 h -3.32032 z"
             id="path866"
             inkscape:connector-curvature="0" />
          <path
             d="m 422.29883,213.19922 h 13.76953 v 3.32031 h -18.51563 v -3.32031 q 2.2461,-2.32422 6.11329,-6.23047 3.88671,-3.92578 4.88281,-5.05859 1.89453,-2.12891 2.63672,-3.59375 0.76172,-1.48438 0.76172,-2.91016 0,-2.32422 -1.64063,-3.78906 -1.62109,-1.46485 -4.23828,-1.46485 -1.85547,0 -3.92578,0.64453 -2.05078,0.64454 -4.39453,1.95313 v -3.98438 q 2.38281,-0.95703 4.45312,-1.44531 2.07031,-0.48828 3.78906,-0.48828 4.53125,0 7.22657,2.26563 2.69531,2.26562 2.69531,6.05468 0,1.79688 -0.68359,3.41797 -0.66407,1.60156 -2.44141,3.78906 -0.48828,0.56641 -3.10547,3.28125 -2.61719,2.69532 -7.38281,7.5586 z"
             id="path868"
             inkscape:connector-curvature="0" />
          <path
             d="m 452.78711,189.95703 q -3.04688,0 -4.58984,3.00781 -1.52344,2.98828 -1.52344,9.00391 0,5.99609 1.52344,9.00391 1.54296,2.98828 4.58984,2.98828 3.06641,0 4.58984,-2.98828 1.54297,-3.00782 1.54297,-9.00391 0,-6.01563 -1.54297,-9.00391 -1.52343,-3.00781 -4.58984,-3.00781 z m 0,-3.125 q 4.90234,0 7.48047,3.88672 2.59765,3.86719 2.59765,11.25 0,7.36328 -2.59765,11.25 -2.57813,3.86719 -7.48047,3.86719 -4.90234,0 -7.5,-3.86719 -2.57813,-3.88672 -2.57813,-11.25 0,-7.38281 2.57813,-11.25 2.59766,-3.88672 7.5,-3.88672 z"
             id="path870"
             inkscape:connector-curvature="0" />
          <path
             d="m 470.48242,213.19922 h 6.44531 v -22.2461 l -7.01171,1.40625 v -3.59375 l 6.97265,-1.40625 h 3.94531 v 25.83985 h 6.44532 v 3.32031 h -16.79688 z"
             id="path872"
             inkscape:connector-curvature="0" />
          <path
             d="m 495.36523,215.91406 v -3.59375 q 1.48438,0.70313 3.00782,1.07422 1.52343,0.37109 2.98828,0.37109 3.90625,0 5.95703,-2.61718 2.07031,-2.63672 2.36328,-7.98828 -1.13281,1.67968 -2.87109,2.57812 -1.73828,0.89844 -3.84766,0.89844 -4.375,0 -6.93359,-2.63672 -2.53907,-2.65625 -2.53907,-7.24609 0,-4.49219 2.65625,-7.20704 2.65625,-2.71484 7.07032,-2.71484 5.05859,0 7.71484,3.88672 2.67578,3.86719 2.67578,11.25 0,6.89453 -3.28125,11.01562 -3.26172,4.10157 -8.78906,4.10157 -1.48438,0 -3.00781,-0.29297 -1.52344,-0.29297 -3.16407,-0.87891 z m 7.85157,-12.36328 q 2.65625,0 4.19922,-1.81641 1.5625,-1.8164 1.5625,-4.98046 0,-3.14454 -1.5625,-4.96094 -1.54297,-1.83594 -4.19922,-1.83594 -2.65625,0 -4.21875,1.83594 -1.54297,1.8164 -1.54297,4.96094 0,3.16406 1.54297,4.98046 1.5625,1.81641 4.21875,1.81641 z"
             id="path874"
             inkscape:connector-curvature="0" />
        </g>
      </g>
      <g
         id="g6"
         transform="matrix(0.00383992,0,0,-0.00383992,106.9607,106.07209)"
         style="fill:#0000ff;fill-opacity:1;stroke:none">
        <path
           id="path4"
           d="m 7898.8797,7369.0328 c -27.2473,14.886 -114.0248,62.955 -192.9039,106.269 l -142.7209,79.219 6.0283,-71.997 c 11.087,-133.41 -50.1976,-286.296 -189.7429,-477.903 -101.9102,-140.454 -412.9213,-462.921 -682.0323,-706.544 -168.0776,-153.411 -293.7532,-276.771 -540.5827,-534.6956 -288.9512,-299.2861 -344.8953,-353.722 -527.6949,-512.4491 -112.8929,-96.872 -247.8106,-218.3389 -299.6535,-267.0145 l -94.654,-90.7614 -69.637,41.4209 c -135.722,82.2224 -326.2196,119.9405 -645.4649,129.7114 -230.7614,7.0127 -352.6503,-12.2767 -545.3456,-85.6629 -257.8929,-96.9291 -475.0787,-238.118 -813.1031,-526.5959 C 3113.5955,4410.5281 2448.7974,3722.094 1344.9057,2570.7973 60.363897,1231.1192 -407.20422,747.03864 -441.98812,723.54214 c -32.6807,-22.737 -224.5008,-217.0539 -652.01528,-661.946303 -575.7642,-599.226697 -604.6827,-631.065697 -605.4658,-656.548697 -1.6362,-48.1386 20.6323,-204.6126 41.1838,-291.8114 39.374,-161.70874 110.2839,-283.02564 336.1586,-578.04024 76.0043,-98.5563 120.2634,-143.4354 511.58458,-521.3504 442.0648,-427.5846 547.65341,-521.1638 862.888797,-768.6949 346.279863,-272.9326 570.823923,-428.6374 803.255003,-560.0976 186.52442,-105.7197 222.87362,-116.8433 290.82872,-90.4028 l 52.5437,20.4 564.5941,593.2912 c 463.2567,486.8031 578.2764,612.0208 644.0355,698.5294 67.7921,90.0957 326.8551,368.1287 1799.0693,1926.77724 1819.6217,1925.16466 1781.052,1883.18396 1948.9902,2127.83626 227.3528,330.2964 345.482,615.4464 369.8926,886.2491 9.3717,107.0382 -9.1452,368.9964 -37.2791,533.813 -23.1917,136.646 -74.1098,278.9708 -130.7302,365.983 l -41.9221,64.7421 49.5296,56.3988 c 27.5397,30.3902 143.5177,174.0221 258.0468,319.0327 192.0075,243.8342 227.7847,284.331 462.8949,529.9408 201.3311,210.1138 299.0815,318.635 467.3465,521.5633 281.5905,339.4212 684.0776,766.7181 811.2134,859.6991 165.3315,121.513 297.0004,174.289 422.9669,171.752 64.3795,-0.526 67.8965,0.268 56.0957,19.781 -7.3492,11.135 -61.8665,98.907 -122.2492,195.021 l -109.724,174.819 -123.6638,109.399 c -68.6787,59.835 -151.7405,129.217 -184.8881,153.859 -118.1724,87.608 -182.0957,155.342 -240.4803,256.457 -69.426,118.524 -101.4752,155.925 -163.833,189.039 z"
           inkscape:connector-curvature="0"
           style="fill:#0000ff;fill-opacity:1" />
      </g>
    </g>
  </g>
  <g
     inkscape:groupmode="layer"
     id="layer4"
     inkscape:label="PasBelle"
     transform="translate(0,-26.06667)"
     style="display:inline">
    <path
       inkscape:connector-curvature="0"
       d="m 67.647458,111.72426 c 0.07877,0.34133 5.723821,30.66708 12.497884,67.42556 6.800318,36.75848 12.419117,67.08423 12.497886,67.39931 0.13128,0.52512 0.315072,0.60388 1.522851,0.60388 1.339059,0 1.391571,0.0263 1.706644,0.89271 0.236304,0.63015 0.577633,0.99773 1.155266,1.18152 0.577634,0.21005 12.419121,0.28882 39.777931,0.28882 42.95491,0 40.43433,0.10502 41.01196,-1.62788 0.15754,-0.47261 1.10276,-5.25121 2.10049,-10.58119 1.02398,-5.35623 3.38703,-17.93289 5.27746,-27.9627 1.89044,-10.02981 5.09368,-27.04374 7.1154,-37.80872 2.02171,-10.76499 5.1987,-27.67389 7.06288,-37.59868 1.89043,-9.89853 3.41328,-18.37924 3.41328,-18.82559 0,-1.05025 -0.94521,-1.70665 -2.25802,-1.54911 l -0.94522,0.10502 0.15754,-1.26029 0.18379,-1.26029 h -9.58346 -9.58346 l -0.26256,1.36532 c -0.15754,0.76142 -0.99773,5.04116 -1.83792,9.53095 -0.86645,4.46352 -3.2295,16.83013 -5.27747,27.43758 -2.02172,10.60744 -4.51604,23.55168 -5.51377,28.75038 -0.99773,5.1987 -2.88817,15.07098 -4.20097,21.92381 -1.31281,6.85283 -3.04571,15.80615 -3.83339,19.87584 -0.78768,4.09594 -1.41783,7.53548 -1.41783,7.69302 0,0.18379 -7.69302,0.26256 -23.49917,0.26256 -22.37016,0 -23.49917,-0.0262 -23.49917,-0.47261 0,-0.26256 -0.6564,-3.93841 -1.44408,-8.19189 -5.90762,-31.4285 -11.500157,-61.17661 -16.672601,-88.6142 -1.60162,-8.53321 -3.098215,-15.75363 -3.308263,-16.09496 -0.420097,-0.6564 -1.470342,-1.15527 -2.153,-1.05024 -0.288816,0.0525 -0.498865,-0.26256 -0.708913,-1.10276 l -0.288817,-1.18152 -9.662229,-0.0788 -9.662229,-0.0525 z"
       id="path12"
       style="display:inline;fill:#000000;fill-opacity:1;fill-rule:nonzero;stroke:none;stroke-width:0.02625606" />
  </g>
  <g
     inkscape:groupmode="layer"
     id="layer2"
     inkscape:label="NopSign"
     transform="translate(0,-26.06667)"
     style="display:inline">
    <g
       transform="matrix(0.02625606,0,0,-0.02625606,62.20204,165.20003)"
       style="display:inline;fill:#000000;stroke:none"
       id="g4566">
      <circle
         transform="scale(1,-1)"
         r="4324.4497"
         cy="-127.6589"
         cx="2778.3967"
         id="path4536"
         style="fill:none;fill-opacity:1;fill-rule:nonzero;stroke:#ff0f00;stroke-width:537.54510498;stroke-linecap:square;stroke-linejoin:round;stroke-miterlimit:4;stroke-dasharray:none;stroke-opacity:1" />
      <path
         transform="translate(-249.20721,-177.37205)"
         inkscape:original-d="M -140.30707,3214.3369 C 1971.6477,1274.8139 4083.5883,-664.72351 6195.5148,-2604.275"
         inkscape:path-effect="#path-effect4540"
         inkscape:connector-curvature="0"
         id="path4538"
         d="M -140.30707,3214.3369 6195.5148,-2604.275"
         style="fill:none;stroke:#ff0000;stroke-width:537.54510498;stroke-linecap:butt;stroke-linejoin:miter;stroke-miterlimit:4;stroke-dasharray:none;stroke-opacity:1" />
    </g>
  </g>
</svg>
